; NON-PLATED HOLES START AT T1
; THROUGH (PLATED) HOLES START AT T100
M48
INCH
T100C0.165354
T101C0.047917
T102C0.015748
T103C0.038000
T104C0.035000
T105C0.039370
T106C0.100000
T107C0.047972
%
T100
X013576Y013359
T101
X014476Y026572
X016476Y026572
X006476Y027567
X011476Y026567
X013476Y027567
X007476Y027567
X010476Y027567
X015476Y027572
X005465Y026566
X009476Y026567
X012476Y026567
X006476Y026567
X008476Y027567
X013476Y026567
X007476Y026567
X010476Y026567
X014476Y027572
X016476Y027572
X011476Y027567
X015476Y026572
X005476Y027567
X008476Y026567
X004475Y026566
X009476Y027567
X012476Y027567
T102
X000599Y017167
X003480Y025087
X012840Y016927
X015240Y019567
X015720Y014527
X007799Y014527
X015000Y014527
X005639Y021727
X003960Y011167
X009479Y006367
X012600Y021967
X005639Y022447
X010200Y010687
X008519Y015247
X004440Y013087
X002519Y025087
X015720Y015487
T103
X014895Y007765
X001299Y008295
X005095Y008369
X017129Y007725
X001299Y007295
X005095Y007369
X017129Y008725
X017129Y009725
X003326Y007221
X014895Y009765
X014895Y008765
X003326Y008221
T104
X003187Y020762
X005187Y020762
X007442Y000913
X013012Y023776
X015012Y023776
X008187Y023762
X009187Y020762
X004187Y020762
X006187Y020762
X007442Y005913
X014012Y023776
X003187Y023762
X016012Y023776
X007187Y020762
X005187Y023762
X010187Y020762
X013012Y020776
X015012Y020776
X012658Y003818
X009915Y001592
X009187Y023762
X004187Y023762
X008915Y001592
X008187Y020762
X006187Y023762
X012658Y001818
X014012Y020776
X016012Y020776
X007187Y023762
X010187Y023762
T105
X004797Y017054
X005673Y001238
X015566Y003753
X006797Y017054
X004797Y014054
X015566Y002753
X006797Y014054
X003797Y017054
X015566Y001753
X005797Y017054
X015566Y004753
X003797Y014054
X005673Y005238
X005797Y014054
X015566Y000753
T106
X003405Y001886
X001005Y001886
X002205Y003786
T107
X004475Y027566
T00
M30
