G04 MADE WITH FRITZING*
G04 WWW.FRITZING.ORG*
G04 DOUBLE SIDED*
G04 HOLES PLATED*
G04 CONTOUR ON CENTER OF CONTOUR VECTOR*
%ASAXBY*%
%FSLAX23Y23*%
%MOIN*%
%OFA0B0*%
%SFA1.0B1.0*%
%ADD10C,0.089370*%
%ADD11C,0.049370*%
%ADD12C,0.254094*%
%ADD13C,0.150000*%
%ADD14C,0.085000*%
%ADD15C,0.088000*%
%ADD16C,0.099639*%
%ADD17C,0.099583*%
%ADD18R,0.089370X0.089370*%
%ADD19R,0.069055X0.065118*%
%ADD20R,0.053307X0.057244*%
%ADD21R,0.057244X0.053307*%
%ADD22R,0.065118X0.069055*%
%ADD23R,0.085000X0.085000*%
%LNMASK0*%
G90*
G70*
G54D10*
X680Y1705D03*
X680Y1405D03*
X580Y1705D03*
X580Y1405D03*
X480Y1705D03*
X480Y1405D03*
X380Y1705D03*
X380Y1405D03*
G54D11*
X852Y1525D03*
X1524Y1957D03*
X444Y1309D03*
X780Y1453D03*
X1020Y1069D03*
X1284Y1693D03*
X564Y2173D03*
X1500Y1453D03*
X348Y2509D03*
X1260Y2197D03*
X1572Y1549D03*
X948Y637D03*
X60Y1717D03*
X396Y1117D03*
X252Y2509D03*
X564Y2245D03*
X1572Y1453D03*
G54D12*
X1358Y1336D03*
G54D10*
X1557Y475D03*
X1557Y375D03*
X1557Y275D03*
X1557Y175D03*
X1557Y75D03*
G54D13*
X341Y189D03*
X101Y189D03*
X221Y379D03*
X341Y189D03*
X101Y189D03*
X221Y379D03*
G54D14*
X992Y159D03*
X892Y159D03*
X1266Y182D03*
X1266Y382D03*
G54D15*
X567Y524D03*
X567Y124D03*
G54D14*
X319Y2076D03*
X319Y2376D03*
X419Y2076D03*
X419Y2376D03*
X519Y2076D03*
X519Y2376D03*
X619Y2076D03*
X619Y2376D03*
X719Y2076D03*
X719Y2376D03*
X819Y2076D03*
X819Y2376D03*
X919Y2076D03*
X919Y2376D03*
X1019Y2076D03*
X1019Y2376D03*
X744Y91D03*
X744Y591D03*
G54D15*
X130Y830D03*
X130Y730D03*
X333Y822D03*
X333Y722D03*
X510Y837D03*
X510Y737D03*
X1490Y977D03*
X1490Y877D03*
X1490Y777D03*
X1713Y773D03*
X1713Y873D03*
X1713Y973D03*
G54D16*
X448Y2757D03*
G54D17*
X548Y2757D03*
X648Y2757D03*
X748Y2757D03*
X848Y2757D03*
X948Y2757D03*
X1048Y2757D03*
X1148Y2757D03*
X1248Y2757D03*
X1348Y2757D03*
X1448Y2757D03*
X1548Y2757D03*
X1648Y2757D03*
X448Y2657D03*
X547Y2657D03*
X648Y2657D03*
X748Y2657D03*
X848Y2657D03*
X948Y2657D03*
X1048Y2657D03*
X1148Y2657D03*
X1248Y2657D03*
X1348Y2657D03*
X1448Y2657D03*
X1548Y2657D03*
X1648Y2657D03*
G54D14*
X1301Y2078D03*
X1301Y2378D03*
X1401Y2078D03*
X1401Y2378D03*
X1501Y2078D03*
X1501Y2378D03*
X1601Y2078D03*
X1601Y2378D03*
G54D18*
X680Y1705D03*
G54D19*
X1629Y1752D03*
X1629Y1833D03*
G54D20*
X1497Y1891D03*
X1497Y1824D03*
G54D21*
X1469Y1618D03*
X1536Y1618D03*
G54D20*
X1331Y1543D03*
X1331Y1610D03*
G54D19*
X1136Y1770D03*
X1136Y1851D03*
G54D21*
X553Y1905D03*
X620Y1905D03*
G54D22*
X336Y1900D03*
X256Y1900D03*
G54D20*
X255Y1493D03*
X255Y1560D03*
X658Y1147D03*
X658Y1080D03*
X462Y1068D03*
X462Y1001D03*
X466Y1227D03*
X466Y1160D03*
G54D21*
X748Y1544D03*
X681Y1544D03*
G54D23*
X992Y159D03*
X1266Y182D03*
X319Y2076D03*
X1301Y2078D03*
G04 End of Mask0*
M02*