G04 MADE WITH FRITZING*
G04 WWW.FRITZING.ORG*
G04 DOUBLE SIDED*
G04 HOLES PLATED*
G04 CONTOUR ON CENTER OF CONTOUR VECTOR*
%ASAXBY*%
%FSLAX23Y23*%
%MOIN*%
%OFA0B0*%
%SFA1.0B1.0*%
%ADD10C,0.079370*%
%ADD11C,0.039370*%
%ADD12C,0.244094*%
%ADD13C,0.140000*%
%ADD14C,0.075000*%
%ADD15C,0.078000*%
%ADD16C,0.089639*%
%ADD17C,0.089583*%
%ADD18R,0.079370X0.079370*%
%ADD19R,0.059055X0.055118*%
%ADD20R,0.043307X0.047244*%
%ADD21R,0.047244X0.043307*%
%ADD22R,0.055118X0.059055*%
%ADD23R,0.075000X0.075000*%
%ADD24C,0.024000*%
%LNCOPPER0*%
G90*
G70*
G54D10*
X680Y1705D03*
X680Y1405D03*
X580Y1705D03*
X580Y1405D03*
X480Y1705D03*
X480Y1405D03*
X380Y1705D03*
X380Y1405D03*
G54D11*
X852Y1525D03*
X1524Y1957D03*
X444Y1309D03*
X780Y1453D03*
X1020Y1069D03*
X1284Y1693D03*
X564Y2173D03*
X1500Y1453D03*
X348Y2509D03*
X1260Y2197D03*
X1572Y1549D03*
X948Y637D03*
X60Y1717D03*
X396Y1117D03*
X252Y2509D03*
X564Y2245D03*
X1572Y1453D03*
G54D12*
X1358Y1336D03*
G54D10*
X1557Y475D03*
X1557Y375D03*
X1557Y275D03*
X1557Y175D03*
X1557Y75D03*
G54D13*
X341Y189D03*
X101Y189D03*
X221Y379D03*
X341Y189D03*
X101Y189D03*
X221Y379D03*
G54D14*
X992Y159D03*
X892Y159D03*
X1266Y182D03*
X1266Y382D03*
G54D15*
X567Y524D03*
X567Y124D03*
G54D14*
X319Y2076D03*
X319Y2376D03*
X419Y2076D03*
X419Y2376D03*
X519Y2076D03*
X519Y2376D03*
X619Y2076D03*
X619Y2376D03*
X719Y2076D03*
X719Y2376D03*
X819Y2076D03*
X819Y2376D03*
X919Y2076D03*
X919Y2376D03*
X1019Y2076D03*
X1019Y2376D03*
X744Y91D03*
X744Y591D03*
G54D15*
X130Y830D03*
X130Y730D03*
X333Y822D03*
X333Y722D03*
X510Y837D03*
X510Y737D03*
X1490Y977D03*
X1490Y877D03*
X1490Y777D03*
X1713Y773D03*
X1713Y873D03*
X1713Y973D03*
G54D16*
X448Y2757D03*
G54D17*
X548Y2757D03*
X648Y2757D03*
X748Y2757D03*
X848Y2757D03*
X948Y2757D03*
X1048Y2757D03*
X1148Y2757D03*
X1248Y2757D03*
X1348Y2757D03*
X1448Y2757D03*
X1548Y2757D03*
X1648Y2757D03*
X448Y2657D03*
X547Y2657D03*
X648Y2657D03*
X748Y2657D03*
X848Y2657D03*
X948Y2657D03*
X1048Y2657D03*
X1148Y2657D03*
X1248Y2657D03*
X1348Y2657D03*
X1448Y2657D03*
X1548Y2657D03*
X1648Y2657D03*
G54D14*
X1301Y2078D03*
X1301Y2378D03*
X1401Y2078D03*
X1401Y2378D03*
X1501Y2078D03*
X1501Y2378D03*
X1601Y2078D03*
X1601Y2378D03*
G54D18*
X680Y1705D03*
G54D19*
X1629Y1752D03*
X1629Y1833D03*
G54D20*
X1497Y1891D03*
X1497Y1824D03*
G54D21*
X1469Y1618D03*
X1536Y1618D03*
G54D20*
X1331Y1543D03*
X1331Y1610D03*
G54D19*
X1136Y1770D03*
X1136Y1851D03*
G54D21*
X553Y1905D03*
X620Y1905D03*
G54D22*
X336Y1900D03*
X256Y1900D03*
G54D20*
X255Y1493D03*
X255Y1560D03*
X658Y1147D03*
X658Y1080D03*
X462Y1068D03*
X462Y1001D03*
X466Y1227D03*
X466Y1160D03*
G54D21*
X748Y1544D03*
X681Y1544D03*
G54D23*
X992Y159D03*
X1266Y182D03*
X319Y2076D03*
X1301Y2078D03*
G54D24*
X766Y1540D02*
X833Y1528D01*
D02*
X256Y1876D02*
X255Y1578D01*
D02*
X642Y1079D02*
X478Y1069D01*
D02*
X680Y1436D02*
X681Y1527D01*
D02*
X467Y983D02*
X501Y866D01*
D02*
X271Y1482D02*
X354Y1423D01*
D02*
X598Y118D02*
X716Y97D01*
D02*
X1685Y884D02*
X1644Y901D01*
X1644Y901D02*
X1630Y1730D01*
D02*
X1133Y2625D02*
X1031Y2402D01*
D02*
X1451Y1617D02*
X1347Y1611D01*
D02*
X1481Y2057D02*
X1452Y2029D01*
X1452Y2029D02*
X1452Y1765D01*
X1452Y1765D02*
X1467Y1634D01*
D02*
X1414Y2403D02*
X1531Y2626D01*
D02*
X1465Y795D02*
X1452Y805D01*
X1452Y805D02*
X1212Y1261D01*
X1212Y1261D02*
X1212Y1717D01*
X1212Y1717D02*
X1159Y1753D01*
D02*
X1505Y1909D02*
X1517Y1939D01*
D02*
X1712Y1003D02*
X1692Y1885D01*
X1692Y1885D02*
X1513Y1891D01*
D02*
X642Y1148D02*
X482Y1159D01*
D02*
X425Y1309D02*
X420Y1309D01*
X420Y1309D02*
X420Y1189D01*
X420Y1189D02*
X450Y1170D01*
D02*
X547Y1889D02*
X490Y1734D01*
D02*
X586Y1736D02*
X616Y1889D01*
D02*
X482Y1234D02*
X732Y1333D01*
X732Y1333D02*
X773Y1435D01*
D02*
X1006Y1082D02*
X732Y1333D01*
D02*
X771Y2631D02*
X948Y2437D01*
X948Y2437D02*
X252Y2437D01*
X252Y2437D02*
X252Y2317D01*
X252Y2317D02*
X1116Y2317D01*
X1116Y2317D02*
X1135Y1873D01*
D02*
X1315Y1553D02*
X1284Y1573D01*
D02*
X1284Y1573D02*
X1284Y1674D01*
D02*
X761Y614D02*
X1068Y1021D01*
X1068Y1021D02*
X1020Y2048D01*
D02*
X1324Y2095D02*
X1332Y2101D01*
X1332Y2101D02*
X1332Y2317D01*
X1332Y2317D02*
X1668Y2317D01*
X1668Y2317D02*
X1668Y2581D01*
X1668Y2581D02*
X1716Y2605D01*
X1716Y2605D02*
X1716Y2845D01*
X1716Y2845D02*
X1620Y2845D01*
X1620Y2845D02*
X1570Y2784D01*
D02*
X130Y860D02*
X132Y1693D01*
X132Y1693D02*
X252Y2173D01*
D02*
X252Y2173D02*
X545Y2173D01*
D02*
X1490Y1007D02*
X1500Y1434D01*
D02*
X366Y2514D02*
X660Y2605D01*
X660Y2605D02*
X656Y2623D01*
D02*
X1605Y1831D02*
X1513Y1825D01*
D02*
X1295Y2350D02*
X1264Y2215D01*
D02*
X1576Y1567D02*
X1596Y1669D01*
X1596Y1669D02*
X1572Y1669D01*
X1572Y1669D02*
X1572Y1813D01*
X1572Y1813D02*
X1605Y1824D01*
D02*
X1254Y2622D02*
X1296Y2406D01*
D02*
X963Y625D02*
X1244Y400D01*
D02*
X60Y1698D02*
X60Y661D01*
X60Y661D02*
X180Y661D01*
X180Y661D02*
X388Y1100D01*
D02*
X419Y2736D02*
X372Y2701D01*
X372Y2701D02*
X372Y2557D01*
X372Y2557D02*
X300Y2557D01*
X300Y2557D02*
X300Y2509D01*
X300Y2509D02*
X271Y2509D01*
D02*
X590Y2076D02*
X547Y2076D01*
D02*
X690Y2076D02*
X647Y2076D01*
D02*
X790Y2076D02*
X747Y2076D01*
D02*
X890Y2076D02*
X847Y2076D01*
D02*
X347Y2076D02*
X390Y2076D01*
D02*
X358Y1921D02*
X498Y2056D01*
D02*
X373Y1735D02*
X342Y1876D01*
D02*
X577Y2231D02*
X699Y2097D01*
D02*
X647Y2376D02*
X690Y2376D01*
D02*
X631Y2787D02*
X612Y2821D01*
X612Y2821D02*
X372Y2821D01*
X372Y2821D02*
X180Y2557D01*
X180Y2557D02*
X204Y2269D01*
X204Y2269D02*
X545Y2246D01*
D02*
X1616Y2102D02*
X1716Y2269D01*
X1716Y2269D02*
X1764Y2557D01*
X1764Y2557D02*
X1764Y2893D01*
X1764Y2893D02*
X1572Y2893D01*
X1572Y2893D02*
X1356Y2797D01*
X1356Y2797D02*
X1355Y2791D01*
D02*
X1534Y1602D02*
X1524Y1501D01*
D02*
X1524Y1501D02*
X1559Y1466D01*
D02*
X1686Y785D02*
X1517Y864D01*
D02*
X1528Y87D02*
X1476Y109D01*
X1476Y109D02*
X1476Y205D01*
X1476Y205D02*
X1533Y255D01*
D02*
X1294Y185D02*
X1476Y205D01*
G04 End of Copper0*
M02*