; NON-PLATED HOLES START AT T1
; THROUGH (PLATED) HOLES START AT T100
M48
INCH
T100C0.165354
T101C0.047917
T102C0.015748
T103C0.038000
T104C0.035000
T105C0.042000
T106C0.039370
T107C0.100000
T108C0.047972
%
T100
X013669Y012604
T101
X004557Y025839
X009557Y025840
X012557Y025840
X005546Y025839
X009557Y026839
X012557Y026839
X006557Y025840
X013557Y025840
X006557Y026839
X013557Y026839
X015557Y025845
X007557Y025840
X010557Y025840
X007557Y026839
X010557Y026839
X015557Y026844
X014557Y025845
X016557Y025845
X008557Y025840
X008557Y026839
X014557Y026844
X016557Y026844
X011557Y025840
X011557Y026839
X005557Y026839
T102
X015258Y017441
X014002Y017474
X007465Y017456
X016894Y021132
X016508Y011519
X015013Y024032
X007817Y021974
X006180Y024152
X003209Y027546
X003747Y013152
X003158Y011852
X005187Y008419
X009539Y021937
X010187Y018178
T103
X002302Y005887
X004384Y005874
X000867Y016130
X002302Y006887
X000867Y014130
X014644Y006196
X016740Y006260
X000867Y015130
X016740Y007260
X000867Y013130
X012861Y007215
X014644Y007196
X000867Y012130
X012861Y006215
X004384Y006874
X016740Y008260
T104
X005156Y019577
X011386Y015116
X007156Y019577
X011156Y016577
X011156Y019577
X004156Y016577
X004156Y019577
X006156Y016577
X008156Y016577
X006156Y019577
X008156Y019577
X010156Y016577
X016386Y015116
X010156Y019577
X009156Y016577
X005156Y016577
X007156Y016577
X009156Y019577
T105
X006783Y001126
X009763Y001126
T106
X011503Y003123
X011503Y001123
X011503Y002123
T107
X003498Y001130
X001098Y001130
X002298Y003030
T108
X004557Y026839
T00
M30
