G04 MADE WITH FRITZING*
G04 WWW.FRITZING.ORG*
G04 DOUBLE SIDED*
G04 HOLES PLATED*
G04 CONTOUR ON CENTER OF CONTOUR VECTOR*
%ASAXBY*%
%FSLAX23Y23*%
%MOIN*%
%OFA0B0*%
%SFA1.0B1.0*%
%ADD10R,0.043307X0.047244*%
%ADD11R,0.137795X0.062992*%
%ADD12R,0.039370X0.039370*%
%ADD13R,0.074803X0.062992*%
%ADD14R,0.024000X0.087000*%
%ADD15R,0.047244X0.043307*%
%ADD16R,0.059055X0.055118*%
%ADD17R,0.062992X0.137795*%
%ADD18R,0.001000X0.001000*%
%LNPASTEMASK1*%
G90*
G70*
G54D10*
X751Y2372D03*
X751Y2439D03*
G54D11*
X440Y2199D03*
X653Y2199D03*
G54D12*
X1147Y2275D03*
X1219Y2275D03*
X1077Y2274D03*
G54D13*
X877Y1263D03*
X877Y1141D03*
X730Y1322D03*
X730Y1200D03*
G54D14*
X1501Y2113D03*
X1451Y2319D03*
X1551Y2319D03*
X1551Y2113D03*
X1501Y2319D03*
X1601Y2113D03*
X1601Y2319D03*
X1451Y2113D03*
X542Y1314D03*
X592Y1108D03*
X492Y1108D03*
X492Y1314D03*
X542Y1108D03*
X442Y1314D03*
X442Y1108D03*
X592Y1314D03*
G54D15*
X1568Y1975D03*
X1635Y1975D03*
G54D16*
X1294Y1976D03*
X1294Y2057D03*
G54D10*
X1649Y984D03*
X1649Y1051D03*
X1384Y1990D03*
X1384Y2057D03*
G54D15*
X734Y1102D03*
X667Y1102D03*
G54D10*
X1606Y1832D03*
X1606Y1899D03*
G54D16*
X298Y1651D03*
X298Y1571D03*
G54D15*
X493Y1408D03*
X426Y1408D03*
G54D10*
X240Y1261D03*
X240Y1328D03*
G54D15*
X428Y1482D03*
X495Y1482D03*
X726Y1405D03*
X793Y1405D03*
X569Y1405D03*
X636Y1405D03*
G54D17*
X236Y1069D03*
X236Y856D03*
G36*
X190Y2177D02*
X147Y2177D01*
X147Y2224D01*
X190Y2224D01*
X190Y2177D01*
G37*
D02*
G36*
X190Y2110D02*
X147Y2110D01*
X147Y2157D01*
X190Y2157D01*
X190Y2110D01*
G37*
D02*
G36*
X107Y2356D02*
X64Y2356D01*
X64Y2403D01*
X107Y2403D01*
X107Y2356D01*
G37*
D02*
G36*
X107Y2289D02*
X64Y2289D01*
X64Y2336D01*
X107Y2336D01*
X107Y2289D01*
G37*
D02*
G54D18*
D02*
G04 End of PasteMask1*
M02*