G04 MADE WITH FRITZING*
G04 WWW.FRITZING.ORG*
G04 DOUBLE SIDED*
G04 HOLES PLATED*
G04 CONTOUR ON CENTER OF CONTOUR VECTOR*
%ASAXBY*%
%FSLAX23Y23*%
%MOIN*%
%OFA0B0*%
%SFA1.0B1.0*%
%ADD10C,0.039370*%
%ADD11C,0.082000*%
%ADD12C,0.244094*%
%ADD13C,0.079370*%
%ADD14C,0.140000*%
%ADD15C,0.075000*%
%ADD16C,0.078000*%
%ADD17C,0.089639*%
%ADD18C,0.089583*%
%ADD19R,0.082000X0.082000*%
%ADD20R,0.075000X0.075000*%
%ADD21R,0.078000X0.078000*%
%ADD22C,0.016000*%
%ADD23C,0.024000*%
%LNCOPPER0*%
G90*
G70*
G54D10*
X1501Y2403D03*
X1689Y2113D03*
X1019Y1818D03*
X747Y1746D03*
X375Y1315D03*
X316Y1185D03*
X519Y842D03*
X1400Y1747D03*
X1526Y1744D03*
X618Y2415D03*
X1651Y1152D03*
X782Y2197D03*
X954Y2194D03*
G54D11*
X976Y113D03*
X678Y113D03*
G54D10*
X321Y2755D03*
G54D12*
X1367Y1260D03*
G54D13*
X1150Y112D03*
X1150Y212D03*
X1150Y312D03*
G54D14*
X350Y113D03*
X110Y113D03*
X230Y303D03*
X350Y113D03*
X110Y113D03*
X230Y303D03*
G54D15*
X416Y1658D03*
X416Y1958D03*
X516Y1658D03*
X516Y1958D03*
X616Y1658D03*
X616Y1958D03*
X716Y1658D03*
X716Y1958D03*
X816Y1658D03*
X816Y1958D03*
X916Y1658D03*
X916Y1958D03*
X1016Y1658D03*
X1016Y1958D03*
X1116Y1658D03*
X1116Y1958D03*
G54D16*
X1286Y622D03*
X1286Y722D03*
X1464Y620D03*
X1464Y720D03*
G54D15*
X1139Y1512D03*
X1639Y1512D03*
G54D16*
X230Y689D03*
X230Y589D03*
X438Y687D03*
X438Y587D03*
X87Y1213D03*
X87Y1313D03*
X87Y1413D03*
X87Y1513D03*
X87Y1613D03*
X1674Y626D03*
X1674Y726D03*
X1674Y826D03*
G54D17*
X456Y2684D03*
G54D18*
X556Y2684D03*
X656Y2684D03*
X756Y2684D03*
X856Y2684D03*
X956Y2684D03*
X1056Y2684D03*
X1156Y2684D03*
X1256Y2684D03*
X1356Y2684D03*
X1456Y2684D03*
X1556Y2684D03*
X1656Y2684D03*
X456Y2584D03*
X555Y2584D03*
X656Y2584D03*
X756Y2584D03*
X856Y2584D03*
X956Y2584D03*
X1056Y2584D03*
X1156Y2584D03*
X1256Y2584D03*
X1356Y2584D03*
X1456Y2585D03*
X1556Y2585D03*
X1656Y2585D03*
G54D19*
X977Y113D03*
G54D20*
X416Y1658D03*
G54D21*
X1286Y622D03*
X1464Y620D03*
G54D22*
X1736Y2622D02*
X1679Y2666D01*
D02*
X516Y1935D02*
X519Y1870D01*
D02*
X519Y1870D02*
X1736Y1870D01*
D02*
X1736Y1870D02*
X1736Y2622D01*
D02*
X1457Y2403D02*
X1456Y2555D01*
D02*
X1488Y2403D02*
X1457Y2403D01*
D02*
X1689Y2585D02*
X1685Y2585D01*
D02*
X1689Y2127D02*
X1689Y2585D01*
D02*
X1016Y2406D02*
X1057Y2406D01*
D02*
X1057Y2406D02*
X1056Y2555D01*
D02*
X1016Y1981D02*
X1016Y2406D01*
D02*
X1157Y2403D02*
X1116Y2403D01*
D02*
X1116Y2403D02*
X1116Y1981D01*
D02*
X1156Y2555D02*
X1157Y2403D01*
G54D23*
D02*
X787Y1958D02*
X744Y1958D01*
G54D22*
D02*
X1511Y1433D02*
X1324Y1433D01*
D02*
X1324Y1433D02*
X1324Y1818D01*
D02*
X1324Y1818D02*
X1032Y1818D01*
D02*
X1511Y914D02*
X1511Y1433D01*
D02*
X1464Y914D02*
X1511Y914D01*
D02*
X1464Y744D02*
X1464Y914D01*
D02*
X1198Y1438D02*
X1226Y1438D01*
D02*
X1226Y1438D02*
X1226Y1746D01*
D02*
X1226Y1746D02*
X760Y1746D01*
D02*
X1198Y1133D02*
X1198Y1438D01*
D02*
X1198Y912D02*
X1198Y1133D01*
D02*
X1375Y620D02*
X1375Y912D01*
D02*
X1375Y912D02*
X1198Y912D01*
D02*
X1440Y620D02*
X1375Y620D01*
D02*
X1170Y622D02*
X1262Y622D01*
D02*
X989Y770D02*
X1170Y770D01*
D02*
X1170Y770D02*
X1170Y622D01*
D02*
X989Y1459D02*
X989Y770D01*
D02*
X616Y1462D02*
X989Y1459D01*
D02*
X616Y1635D02*
X616Y1462D01*
G54D23*
D02*
X319Y589D02*
X260Y589D01*
D02*
X319Y1053D02*
X319Y589D01*
D02*
X378Y1053D02*
X319Y1053D01*
D02*
X375Y1296D02*
X378Y1053D01*
D02*
X316Y1958D02*
X316Y1702D01*
D02*
X387Y1958D02*
X316Y1958D01*
D02*
X316Y1702D02*
X316Y1204D01*
D02*
X787Y1658D02*
X744Y1658D01*
G54D22*
D02*
X1271Y362D02*
X1271Y212D01*
D02*
X1271Y212D02*
X1176Y212D01*
D02*
X1671Y362D02*
X1271Y362D01*
D02*
X1674Y602D02*
X1671Y362D01*
D02*
X1286Y847D02*
X1286Y746D01*
D02*
X1050Y847D02*
X1286Y847D01*
D02*
X1050Y1559D02*
X1050Y847D01*
D02*
X915Y1559D02*
X1050Y1559D01*
D02*
X915Y1635D02*
X915Y1559D01*
G54D23*
D02*
X519Y312D02*
X519Y823D01*
D02*
X1120Y312D02*
X519Y312D01*
G54D22*
D02*
X1565Y1496D02*
X1395Y1497D01*
D02*
X1395Y1497D02*
X1400Y1734D01*
D02*
X1565Y726D02*
X1565Y1496D01*
D02*
X1649Y726D02*
X1565Y726D01*
G54D23*
D02*
X446Y303D02*
X291Y303D01*
D02*
X446Y212D02*
X446Y303D01*
D02*
X1120Y212D02*
X446Y212D01*
G54D22*
D02*
X171Y1413D02*
X111Y1413D01*
D02*
X171Y2482D02*
X171Y1413D01*
D02*
X657Y2482D02*
X171Y2482D01*
D02*
X656Y2555D02*
X657Y2482D01*
D02*
X222Y2415D02*
X605Y2415D01*
D02*
X222Y1313D02*
X222Y2415D01*
D02*
X111Y1313D02*
X222Y1313D01*
D02*
X1651Y1444D02*
X1651Y1165D01*
D02*
X1734Y1744D02*
X1734Y1444D01*
D02*
X1734Y1444D02*
X1651Y1444D01*
D02*
X1539Y1744D02*
X1734Y1744D01*
G54D23*
D02*
X857Y2197D02*
X801Y2197D01*
D02*
X856Y2549D02*
X857Y2197D01*
G54D22*
D02*
X956Y2555D02*
X954Y2207D01*
D02*
X1156Y2756D02*
X334Y2755D01*
D02*
X1156Y2713D02*
X1156Y2756D01*
G04 End of Copper0*
M02*