G04 MADE WITH FRITZING*
G04 WWW.FRITZING.ORG*
G04 DOUBLE SIDED*
G04 HOLES PLATED*
G04 CONTOUR ON CENTER OF CONTOUR VECTOR*
%ASAXBY*%
%FSLAX23Y23*%
%MOIN*%
%OFA0B0*%
%SFA1.0B1.0*%
%ADD10C,0.039370*%
%ADD11C,0.082000*%
%ADD12C,0.244094*%
%ADD13C,0.079370*%
%ADD14C,0.140000*%
%ADD15C,0.075000*%
%ADD16C,0.078000*%
%ADD17C,0.089639*%
%ADD18C,0.089583*%
%ADD19R,0.043307X0.047244*%
%ADD20R,0.082000X0.082000*%
%ADD21R,0.137795X0.062992*%
%ADD22R,0.039370X0.039370*%
%ADD23R,0.074803X0.062992*%
%ADD24R,0.024000X0.087000*%
%ADD25R,0.047244X0.043307*%
%ADD26R,0.059055X0.055118*%
%ADD27R,0.062992X0.137795*%
%ADD28R,0.075000X0.075000*%
%ADD29R,0.078000X0.078000*%
%ADD30C,0.016000*%
%ADD31C,0.024000*%
%ADD32C,0.012000*%
%LNCOPPER1*%
G90*
G70*
G54D10*
X1501Y2403D03*
X1689Y2113D03*
X1019Y1818D03*
X747Y1746D03*
X375Y1315D03*
X316Y1185D03*
X519Y842D03*
X1400Y1747D03*
X1526Y1744D03*
X618Y2415D03*
X1651Y1152D03*
X782Y2197D03*
X954Y2194D03*
G54D11*
X976Y113D03*
X678Y113D03*
G54D10*
X321Y2755D03*
G54D12*
X1367Y1260D03*
G54D13*
X1150Y112D03*
X1150Y212D03*
X1150Y312D03*
G54D14*
X350Y113D03*
X110Y113D03*
X230Y303D03*
X350Y113D03*
X110Y113D03*
X230Y303D03*
G54D15*
X416Y1658D03*
X416Y1958D03*
X516Y1658D03*
X516Y1958D03*
X616Y1658D03*
X616Y1958D03*
X716Y1658D03*
X716Y1958D03*
X816Y1658D03*
X816Y1958D03*
X916Y1658D03*
X916Y1958D03*
X1016Y1658D03*
X1016Y1958D03*
X1116Y1658D03*
X1116Y1958D03*
G54D16*
X1286Y622D03*
X1286Y722D03*
X1464Y620D03*
X1464Y720D03*
G54D15*
X1139Y1512D03*
X1639Y1512D03*
G54D16*
X230Y689D03*
X230Y589D03*
X438Y687D03*
X438Y587D03*
X87Y1213D03*
X87Y1313D03*
X87Y1413D03*
X87Y1513D03*
X87Y1613D03*
X1674Y626D03*
X1674Y726D03*
X1674Y826D03*
G54D17*
X456Y2684D03*
G54D18*
X556Y2684D03*
X656Y2684D03*
X756Y2684D03*
X856Y2684D03*
X956Y2684D03*
X1056Y2684D03*
X1156Y2684D03*
X1256Y2684D03*
X1356Y2684D03*
X1456Y2684D03*
X1556Y2684D03*
X1656Y2684D03*
X456Y2584D03*
X555Y2584D03*
X656Y2584D03*
X756Y2584D03*
X856Y2584D03*
X956Y2584D03*
X1056Y2584D03*
X1156Y2584D03*
X1256Y2584D03*
X1356Y2584D03*
X1456Y2585D03*
X1556Y2585D03*
X1656Y2585D03*
G54D19*
X751Y2372D03*
X751Y2439D03*
G54D20*
X977Y113D03*
G54D21*
X440Y2199D03*
X653Y2199D03*
G54D22*
X1147Y2275D03*
X1219Y2275D03*
X1077Y2274D03*
G54D23*
X877Y1263D03*
X877Y1141D03*
X730Y1322D03*
X730Y1200D03*
G54D24*
X1501Y2113D03*
X1451Y2319D03*
X1551Y2319D03*
X1551Y2113D03*
X1501Y2319D03*
X1601Y2113D03*
X1601Y2319D03*
X1451Y2113D03*
X542Y1314D03*
X592Y1108D03*
X492Y1108D03*
X492Y1314D03*
X542Y1108D03*
X442Y1314D03*
X442Y1108D03*
X592Y1314D03*
G54D25*
X1568Y1975D03*
X1635Y1975D03*
G54D26*
X1294Y1976D03*
X1294Y2057D03*
G54D19*
X1649Y984D03*
X1649Y1051D03*
X1384Y1990D03*
X1384Y2057D03*
G54D25*
X734Y1102D03*
X667Y1102D03*
G54D19*
X1606Y1832D03*
X1606Y1899D03*
G54D26*
X298Y1651D03*
X298Y1571D03*
G54D25*
X493Y1408D03*
X426Y1408D03*
G54D19*
X240Y1261D03*
X240Y1328D03*
G54D25*
X428Y1482D03*
X495Y1482D03*
X726Y1405D03*
X793Y1405D03*
X569Y1405D03*
X636Y1405D03*
G54D27*
X236Y1069D03*
X236Y856D03*
G54D28*
X416Y1658D03*
G54D29*
X1286Y622D03*
X1464Y620D03*
G54D30*
X756Y2439D02*
X756Y2555D01*
D02*
X1451Y2205D02*
X1738Y2205D01*
D02*
X1738Y2205D02*
X1738Y2771D01*
D02*
X1738Y2771D02*
X1557Y2775D01*
D02*
X1451Y2151D02*
X1451Y2205D01*
D02*
X1557Y2775D02*
X1556Y2714D01*
D02*
X751Y2439D02*
X756Y2439D01*
D02*
X1357Y2460D02*
X1356Y2555D01*
D02*
X1557Y2506D02*
X1556Y2555D01*
D02*
X1451Y2386D02*
X1259Y2386D01*
D02*
X1259Y2386D02*
X1256Y2555D01*
D02*
X1451Y2357D02*
X1451Y2386D01*
D02*
X1551Y2403D02*
X1515Y2403D01*
D02*
X1551Y2357D02*
X1551Y2403D01*
D02*
X1602Y2460D02*
X1357Y2460D01*
D02*
X1601Y2357D02*
X1603Y2460D01*
D02*
X1501Y2248D02*
X1653Y2248D01*
D02*
X1653Y2248D02*
X1654Y2506D01*
D02*
X1501Y2281D02*
X1501Y2248D01*
D02*
X1654Y2506D02*
X1557Y2506D01*
D02*
X1318Y2057D02*
X1368Y2057D01*
D02*
X1635Y2113D02*
X1608Y2113D01*
D02*
X1635Y1991D02*
X1635Y2113D01*
D02*
X1551Y1975D02*
X1568Y1975D01*
D02*
X1676Y2113D02*
X1608Y2113D01*
D02*
X1568Y1899D02*
X1568Y1959D01*
D02*
X1590Y1899D02*
X1568Y1899D01*
G54D31*
D02*
X816Y1686D02*
X816Y1929D01*
G54D30*
D02*
X1551Y2075D02*
X1551Y1975D01*
G54D31*
D02*
X1639Y1657D02*
X1639Y1540D01*
G54D30*
D02*
X616Y1746D02*
X733Y1746D01*
D02*
X916Y1818D02*
X1005Y1818D01*
G54D31*
D02*
X1605Y1657D02*
X1639Y1657D01*
G54D30*
D02*
X916Y1935D02*
X916Y1818D01*
D02*
X616Y1935D02*
X616Y1746D01*
G54D31*
D02*
X1606Y1814D02*
X1605Y1657D01*
G54D30*
D02*
X298Y1328D02*
X298Y1549D01*
D02*
X708Y1405D02*
X654Y1405D01*
D02*
X234Y793D02*
X231Y713D01*
D02*
X239Y1243D02*
X237Y1132D01*
D02*
X256Y1328D02*
X298Y1328D01*
D02*
X428Y1408D02*
X428Y1465D01*
D02*
X493Y1405D02*
X493Y1408D01*
D02*
X493Y1482D02*
X493Y1424D01*
D02*
X416Y1635D02*
X416Y1482D01*
D02*
X416Y1482D02*
X428Y1482D01*
D02*
X426Y1408D02*
X428Y1408D01*
D02*
X495Y1482D02*
X493Y1482D01*
D02*
X551Y1405D02*
X493Y1405D01*
D02*
X426Y1314D02*
X426Y1391D01*
D02*
X592Y1322D02*
X592Y1314D01*
D02*
X542Y1263D02*
X542Y1276D01*
D02*
X698Y1322D02*
X592Y1322D01*
D02*
X845Y1263D02*
X542Y1263D01*
D02*
X492Y1352D02*
X493Y1391D01*
D02*
X435Y1314D02*
X426Y1314D01*
D02*
X435Y1314D02*
X388Y1315D01*
D02*
X541Y1229D02*
X442Y1229D01*
D02*
X541Y1276D02*
X541Y1229D01*
D02*
X442Y1229D02*
X442Y1276D01*
D02*
X442Y1070D02*
X442Y1069D01*
D02*
X442Y1069D02*
X262Y1069D01*
G54D31*
D02*
X492Y1185D02*
X492Y1146D01*
D02*
X335Y1185D02*
X492Y1185D01*
G54D30*
D02*
X438Y303D02*
X285Y303D01*
D02*
X734Y1200D02*
X734Y1118D01*
D02*
X730Y1200D02*
X734Y1200D01*
G54D31*
D02*
X230Y559D02*
X230Y364D01*
G54D30*
D02*
X438Y563D02*
X438Y303D01*
D02*
X979Y687D02*
X979Y957D01*
D02*
X667Y1108D02*
X667Y1102D01*
D02*
X976Y1405D02*
X811Y1405D01*
D02*
X598Y1108D02*
X667Y1108D01*
D02*
X463Y687D02*
X979Y687D01*
D02*
X979Y957D02*
X976Y1405D01*
D02*
X542Y988D02*
X542Y1070D01*
D02*
X877Y1115D02*
X877Y988D01*
D02*
X877Y988D02*
X542Y988D01*
D02*
X1400Y1897D02*
X1294Y1897D01*
D02*
X1294Y1897D02*
X1294Y1954D01*
D02*
X1400Y1761D02*
X1400Y1897D01*
G54D31*
D02*
X492Y842D02*
X500Y842D01*
D02*
X492Y1070D02*
X492Y842D01*
D02*
X110Y303D02*
X110Y174D01*
D02*
X375Y1658D02*
X375Y1334D01*
D02*
X387Y1658D02*
X375Y1658D01*
G54D30*
D02*
X1501Y1744D02*
X1512Y1744D01*
G54D31*
D02*
X169Y303D02*
X110Y303D01*
G54D30*
D02*
X1501Y2075D02*
X1501Y1744D01*
G54D31*
D02*
X1144Y1658D02*
X1606Y1658D01*
D02*
X1606Y1658D02*
X1606Y1814D01*
D02*
X716Y2199D02*
X716Y1986D01*
D02*
X653Y2199D02*
X716Y2199D01*
G54D30*
D02*
X298Y1658D02*
X298Y1651D01*
D02*
X393Y1658D02*
X298Y1658D01*
D02*
X618Y2372D02*
X618Y2402D01*
D02*
X735Y2372D02*
X618Y2372D01*
D02*
X165Y2597D02*
X311Y2745D01*
D02*
X168Y2218D02*
X165Y2597D01*
D02*
X87Y303D02*
X174Y303D01*
D02*
X87Y1188D02*
X87Y303D01*
G54D31*
D02*
X416Y2199D02*
X440Y2199D01*
D02*
X325Y2199D02*
X377Y2199D01*
D02*
X430Y2660D02*
X325Y2560D01*
D02*
X325Y2560D02*
X325Y2199D01*
D02*
X416Y1986D02*
X416Y2199D01*
G54D30*
D02*
X168Y1513D02*
X111Y1513D01*
D02*
X86Y2294D02*
X87Y1638D01*
D02*
X168Y2115D02*
X168Y1513D01*
G54D32*
D02*
X1400Y1990D02*
X1501Y1990D01*
D02*
X1501Y1990D02*
X1501Y2075D01*
G54D30*
D02*
X1651Y1139D02*
X1649Y1069D01*
G54D31*
D02*
X716Y2198D02*
X763Y2198D01*
G54D30*
D02*
X1674Y984D02*
X1674Y851D01*
D02*
X1665Y984D02*
X1674Y984D01*
D02*
X1210Y1744D02*
X1210Y2033D01*
D02*
X1016Y1744D02*
X1210Y1744D01*
D02*
X1016Y1681D02*
X1016Y1744D01*
G54D31*
D02*
X416Y1562D02*
X716Y1562D01*
D02*
X416Y1629D02*
X416Y1562D01*
D02*
X716Y1562D02*
X716Y1629D01*
G54D30*
D02*
X1384Y2183D02*
X1147Y2183D01*
D02*
X1147Y2183D02*
X1147Y2254D01*
D02*
X1384Y2075D02*
X1384Y2183D01*
D02*
X440Y2274D02*
X1056Y2274D01*
D02*
X440Y2225D02*
X440Y2274D01*
D02*
X1219Y2388D02*
X1219Y2297D01*
D02*
X1260Y2388D02*
X1219Y2388D01*
D02*
X1256Y2555D02*
X1260Y2388D01*
D02*
X954Y2033D02*
X954Y2180D01*
D02*
X1210Y2033D02*
X954Y2033D01*
D02*
X1125Y2275D02*
X1099Y2274D01*
G54D31*
D02*
X1120Y112D02*
X1008Y113D01*
D02*
X1139Y514D02*
X678Y514D01*
D02*
X678Y514D02*
X678Y145D01*
D02*
X1139Y1483D02*
X1139Y514D01*
G54D30*
D02*
X262Y2591D02*
X431Y2764D01*
D02*
X431Y2764D02*
X957Y2764D01*
D02*
X957Y2764D02*
X956Y2713D01*
D02*
X248Y2796D02*
X1457Y2796D01*
D02*
X1457Y2796D02*
X1456Y2714D01*
D02*
X262Y1764D02*
X262Y2591D01*
D02*
X516Y1764D02*
X262Y1764D01*
D02*
X516Y1681D02*
X516Y1764D01*
D02*
X85Y2629D02*
X248Y2796D01*
D02*
X86Y2397D02*
X85Y2629D01*
G54D31*
D02*
X678Y145D02*
X678Y113D01*
D02*
X678Y113D02*
X411Y113D01*
G36*
X190Y2177D02*
X147Y2177D01*
X147Y2224D01*
X190Y2224D01*
X190Y2177D01*
G37*
D02*
G36*
X190Y2110D02*
X147Y2110D01*
X147Y2157D01*
X190Y2157D01*
X190Y2110D01*
G37*
D02*
G36*
X107Y2356D02*
X64Y2356D01*
X64Y2403D01*
X107Y2403D01*
X107Y2356D01*
G37*
D02*
G36*
X107Y2289D02*
X64Y2289D01*
X64Y2336D01*
X107Y2336D01*
X107Y2289D01*
G37*
D02*
G04 End of Copper1*
M02*